<svg width="24" height="25" viewBox="0 0 24 25" fill="none" xmlns="http://www.w3.org/2000/svg">
<g clip-path="url(#clip0_133_4366)">
<path d="M23.414 16.59C23.414 16.59 14.68 12.62 14.649 12.61C13.921 12.362 13.131 12.545 12.587 13.089C12.043 13.633 11.86 14.423 12.145 15.24L16.089 23.915C16.248 24.266 16.595 24.494 16.981 24.501H17C17.378 24.501 17.725 24.287 17.895 23.948L19.746 20.246L23.448 18.395C23.793 18.222 24.008 17.868 24.001 17.482C23.994 17.097 23.766 16.75 23.415 16.59H23.414ZM18.553 18.606C18.36 18.703 18.202 18.86 18.106 19.053L17.042 21.181L13.998 14.505L20.679 17.543L18.554 18.605L18.553 18.606ZM12.912 22.46C12.74 22.475 12.567 22.486 12.392 22.493C11.724 21.832 9.982 19.975 8.768 17.501H9.5C10.052 17.501 10.5 17.054 10.5 16.501C10.5 15.948 10.052 15.501 9.5 15.501H7.97C7.679 14.549 7.5 13.541 7.5 12.501C7.5 11.461 7.68 10.454 7.972 9.501H16.029C16.147 9.888 16.247 10.284 16.324 10.688C16.428 11.231 16.953 11.589 17.493 11.483C18.035 11.38 18.391 10.856 18.288 10.314C18.236 10.039 18.174 9.768 18.105 9.501H21.498C21.511 9.501 21.525 9.501 21.538 9.501C21.837 10.449 21.998 11.457 21.998 12.502C21.998 12.809 21.984 13.112 21.957 13.412C21.908 13.962 22.313 14.448 22.863 14.498C23.415 14.552 23.9 14.142 23.949 13.592C23.981 13.233 23.998 12.869 23.998 12.502C24 5.883 18.617 0.5 12 0.5C5.383 0.5 0 5.883 0 12.5C0 19.117 5.383 24.5 11.999 24.5C12.366 24.5 12.729 24.483 13.087 24.451C13.637 24.402 14.044 23.917 13.995 23.366C13.946 22.817 13.462 22.411 12.911 22.459L12.912 22.46ZM5.892 15.501H2.5C2.487 15.501 2.474 15.501 2.46 15.501C2.161 14.553 2 13.545 2 12.5C2 11.455 2.161 10.447 2.46 9.499C2.473 9.499 2.486 9.499 2.5 9.499H5.892C5.647 10.454 5.5 11.458 5.5 12.499C5.5 13.54 5.646 14.544 5.892 15.499V15.501ZM8.773 7.501C9.794 5.424 11.188 3.777 12.002 2.913C12.817 3.776 14.211 5.42 15.232 7.501H8.773ZM20.658 7.501H17.43C16.639 5.615 15.542 4.013 14.598 2.844C17.177 3.539 19.347 5.241 20.658 7.501ZM9.4 2.844C8.456 4.013 7.358 5.615 6.568 7.5H3.342C4.652 5.24 6.821 3.538 9.4 2.844ZM3.342 17.5H6.568C7.358 19.386 8.456 20.987 9.4 22.156C6.822 21.461 4.653 19.759 3.342 17.5Z" fill="#3501C5"/>
</g>
<defs>
<clipPath id="clip0_133_4366">
<rect width="24" height="24" fill="white" transform="translate(0 0.5)"/>
</clipPath>
</defs>
</svg>
