<svg width="25" height="24" viewBox="0 0 25 24" fill="none" xmlns="http://www.w3.org/2000/svg">
<g clip-path="url(#clip0_133_5660)">
<path d="M23.914 16.09C23.914 16.09 15.18 12.12 15.149 12.11C14.421 11.862 13.631 12.045 13.087 12.589C12.543 13.133 12.36 13.923 12.645 14.74L16.589 23.415C16.748 23.766 17.095 23.994 17.481 24.001H17.5C17.878 24.001 18.225 23.787 18.395 23.448L20.246 19.746L23.948 17.895C24.293 17.722 24.508 17.368 24.501 16.982C24.494 16.597 24.266 16.25 23.915 16.09H23.914ZM19.053 18.106C18.86 18.203 18.702 18.36 18.606 18.553L17.542 20.681L14.498 14.005L21.179 17.043L19.054 18.105L19.053 18.106ZM13.412 21.96C13.24 21.975 13.067 21.986 12.892 21.993C12.224 21.332 10.482 19.475 9.268 17.001H10C10.552 17.001 11 16.554 11 16.001C11 15.448 10.552 15.001 10 15.001H8.47C8.179 14.049 8 13.041 8 12.001C8 10.961 8.18 9.954 8.472 9.001H16.529C16.647 9.388 16.747 9.784 16.824 10.188C16.928 10.731 17.453 11.089 17.993 10.983C18.535 10.88 18.891 10.356 18.788 9.814C18.736 9.539 18.674 9.268 18.605 9.001H21.998C22.011 9.001 22.025 9.001 22.038 9.001C22.337 9.949 22.498 10.957 22.498 12.002C22.498 12.309 22.484 12.612 22.457 12.912C22.408 13.462 22.813 13.948 23.363 13.998C23.915 14.052 24.4 13.642 24.449 13.092C24.481 12.733 24.498 12.369 24.498 12.002C24.5 5.383 19.117 0 12.5 0C5.883 0 0.5 5.383 0.5 12C0.5 18.617 5.883 24 12.499 24C12.866 24 13.229 23.983 13.587 23.951C14.137 23.902 14.544 23.417 14.495 22.866C14.446 22.317 13.962 21.911 13.411 21.959L13.412 21.96ZM6.392 15.001H3C2.987 15.001 2.974 15.001 2.96 15.001C2.661 14.053 2.5 13.045 2.5 12C2.5 10.955 2.661 9.947 2.96 8.999C2.973 8.999 2.986 8.999 3 8.999H6.392C6.147 9.954 6 10.958 6 11.999C6 13.04 6.146 14.044 6.392 14.999V15.001ZM9.273 7.001C10.294 4.924 11.688 3.277 12.502 2.413C13.317 3.276 14.711 4.92 15.732 7.001H9.273ZM21.158 7.001H17.93C17.139 5.115 16.042 3.513 15.098 2.344C17.677 3.039 19.847 4.741 21.158 7.001ZM9.9 2.344C8.956 3.513 7.858 5.115 7.068 7H3.842C5.152 4.74 7.321 3.038 9.9 2.344ZM3.842 17H7.068C7.858 18.886 8.956 20.487 9.9 21.656C7.322 20.961 5.153 19.259 3.842 17Z" fill="#FEFEFE"/>
</g>
<defs>
<clipPath id="clip0_133_5660">
<rect width="24" height="24" fill="white" transform="translate(0.5)"/>
</clipPath>
</defs>
</svg>
