<svg width="55" height="55" viewBox="0 0 55 55" fill="none" xmlns="http://www.w3.org/2000/svg">
<path d="M55 11.25V8.75C55 3.925 51.075 0 46.25 0H8.75C3.925 0 0 3.925 0 8.75V11.25C0 14.45 1.745 17.225 4.315 18.75C1.745 20.275 0 23.05 0 26.25V28.75C0 31.95 1.745 34.725 4.315 36.25C1.745 37.775 0 40.55 0 43.75V46.25C0 51.075 3.925 55 8.75 55H46.25C51.075 55 55 51.075 55 46.25V43.75C55 40.55 53.255 37.775 50.685 36.25C53.255 34.725 55 31.95 55 28.75V26.25C55 23.05 53.255 20.275 50.685 18.75C53.255 17.225 55 14.45 55 11.25ZM52.5 43.75V46.25C52.5 49.6975 49.6975 52.5 46.25 52.5H8.75C5.3025 52.5 2.5 49.6975 2.5 46.25V43.75C2.5 40.3025 5.3025 37.5 8.75 37.5H10V41.25C10 41.94 10.56 42.5 11.25 42.5C11.94 42.5 12.5 41.94 12.5 41.25V37.5H20V41.25C20 41.94 20.56 42.5 21.25 42.5C21.94 42.5 22.5 41.94 22.5 41.25V37.5H46.25C49.6975 37.5 52.5 40.3025 52.5 43.75ZM52.5 26.25V28.75C52.5 32.1975 49.6975 35 46.25 35H8.75C5.3025 35 2.5 32.1975 2.5 28.75V26.25C2.5 22.8025 5.3025 20 8.75 20H10V23.75C10 24.44 10.56 25 11.25 25C11.94 25 12.5 24.44 12.5 23.75V20H20V23.75C20 24.44 20.56 25 21.25 25C21.94 25 22.5 24.44 22.5 23.75V20H46.25C49.6975 20 52.5 22.8025 52.5 26.25ZM8.75 17.5C5.3025 17.5 2.5 14.6975 2.5 11.25V8.75C2.5 5.3025 5.3025 2.5 8.75 2.5H10V6.25C10 6.94 10.56 7.5 11.25 7.5C11.94 7.5 12.5 6.94 12.5 6.25V2.5H20V6.25C20 6.94 20.56 7.5 21.25 7.5C21.94 7.5 22.5 6.94 22.5 6.25V2.5H46.25C49.6975 2.5 52.5 5.3025 52.5 8.75V11.25C52.5 14.6975 49.6975 17.5 46.25 17.5H8.75Z" fill="#FEFEFE"/>
</svg>
