<svg width="71" height="70" viewBox="0 0 71 70" fill="none" xmlns="http://www.w3.org/2000/svg">
<g clip-path="url(#clip0_133_5680)">
<path d="M54.6945 6.24164L36.4216 0.14872C35.8233 -0.0505499 35.1765 -0.0505499 34.5783 0.14872L16.3053 6.24164C13.4001 7.20671 10.8728 9.0628 9.08263 11.5462C7.29247 14.0296 6.33045 17.014 6.33326 20.0754V35C6.33326 57.0587 33.1666 69.2416 34.3158 69.7491C34.6886 69.9148 35.092 70.0003 35.4999 70.0003C35.9079 70.0003 36.3113 69.9148 36.6841 69.7491C37.8333 69.2416 64.6666 57.0587 64.6666 35V20.0754C64.6694 17.014 63.7074 14.0296 61.9172 11.5462C60.127 9.0628 57.5998 7.20671 54.6945 6.24164ZM58.8333 35C58.8333 50.9104 40.4028 61.3462 35.4999 63.8429C30.5912 61.355 12.1666 50.9512 12.1666 35V20.0754C12.1668 18.2387 12.7449 16.4486 13.8191 14.9588C14.8933 13.469 16.409 12.3549 18.1516 11.7746L35.4999 5.9908L52.8483 11.7746C54.5908 12.3549 56.1066 13.469 57.1808 14.9588C58.255 16.4486 58.8331 18.2387 58.8333 20.0754V35Z" fill="#2C303E"/>
<path d="M45.125 24.2083L32.91 36.4583L26.365 29.6333C26.1024 29.3461 25.7849 29.1144 25.4313 28.9518C25.0777 28.7892 24.6951 28.699 24.3062 28.6866C23.9172 28.6741 23.5296 28.7397 23.1664 28.8793C22.8031 29.0189 22.4714 29.2299 22.1909 29.4996C21.9104 29.7694 21.6868 30.0926 21.5331 30.4502C21.3794 30.8078 21.2989 31.1925 21.2962 31.5817C21.2935 31.9708 21.3688 32.3566 21.5175 32.7163C21.6662 33.0759 21.8854 33.4022 22.1621 33.6758L28.888 40.6758C29.3896 41.2176 29.9958 41.652 30.6701 41.9528C31.3444 42.2536 32.0726 42.4145 32.8109 42.4258H32.9071C33.6306 42.4282 34.3474 42.2868 35.0158 42.01C35.6842 41.7331 36.291 41.3262 36.8009 40.8129L49.2609 28.3529C49.533 28.0813 49.749 27.7588 49.8965 27.4038C50.044 27.0488 50.1201 26.6681 50.1205 26.2837C50.1209 25.8992 50.0456 25.5185 49.8989 25.1631C49.7521 24.8078 49.5368 24.4848 49.2653 24.2127C48.9937 23.9405 48.6712 23.7246 48.3162 23.5771C47.9611 23.4296 47.5805 23.3534 47.1961 23.353C46.8116 23.3526 46.4308 23.4279 46.0755 23.5747C45.7201 23.7214 45.3972 23.9367 45.125 24.2083Z" fill="#2C303E"/>
</g>
<defs>
<clipPath id="clip0_133_5680">
<rect width="70" height="70" fill="white" transform="translate(0.5)"/>
</clipPath>
</defs>
</svg>
