<svg width="60" height="60" viewBox="0 0 60 60" fill="none" xmlns="http://www.w3.org/2000/svg">
<path d="M51.25 32.5H8.75C3.925 32.5 0 36.425 0 41.25V46.25C0 49.7275 2.055 52.7125 5 54.1225V58.75C5 59.44 5.56 60 6.25 60C6.94 60 7.5 59.44 7.5 58.75V54.8725C7.9125 54.9325 8.3225 55 8.75 55H51.25C51.6775 55 52.0875 54.9325 52.5 54.8725V58.75C52.5 59.44 53.06 60 53.75 60C54.44 60 55 59.44 55 58.75V54.1225C57.945 52.7125 60 49.7275 60 46.25V41.25C60 36.425 56.075 32.5 51.25 32.5ZM57.5 46.25C57.5 49.6975 54.6975 52.5 51.25 52.5H8.75C5.3025 52.5 2.5 49.6975 2.5 46.25V41.25C2.5 37.8025 5.3025 35 8.75 35H51.25C54.6975 35 57.5 37.8025 57.5 41.25V46.25ZM42.58 17.71C39.22 14.35 34.7525 12.5 30 12.5C25.2475 12.5 20.78 14.35 17.42 17.71C16.9325 18.1975 16.14 18.1975 15.6525 17.71C15.165 17.2225 15.165 16.43 15.6525 15.9425C19.485 12.11 24.58 10 30 10C35.42 10 40.515 12.11 44.3475 15.9425C44.835 16.43 44.835 17.2225 44.3475 17.71C43.86 18.1975 43.0675 18.1975 42.58 17.71ZM36.9175 22.865C37.405 23.3525 37.405 24.145 36.9175 24.6325C36.43 25.12 35.6375 25.12 35.15 24.6325C32.4 21.8775 27.5975 21.8775 24.8475 24.6325C24.36 25.12 23.5675 25.12 23.08 24.6325C22.5925 24.145 22.5925 23.3525 23.08 22.865C26.7725 19.1675 33.2275 19.1675 36.9175 22.865ZM9.035 10.4525C8.5475 9.965 8.5475 9.1725 9.035 8.685C14.635 3.0825 22.0775 0 30 0C37.9225 0 45.365 3.0825 50.965 8.685C51.4525 9.1725 51.4525 9.965 50.965 10.4525C50.4775 10.94 49.685 10.94 49.1975 10.4525C44.0725 5.325 37.255 2.5 30 2.5C22.745 2.5 15.9275 5.325 10.8025 10.4525C10.315 10.94 9.5225 10.94 9.035 10.4525ZM12.5 43.75C12.5 45.13 11.38 46.25 10 46.25C8.62 46.25 7.5 45.13 7.5 43.75C7.5 42.37 8.62 41.25 10 41.25C11.38 41.25 12.5 42.37 12.5 43.75ZM20 43.75C20 45.13 18.88 46.25 17.5 46.25C16.12 46.25 15 45.13 15 43.75C15 42.37 16.12 41.25 17.5 41.25C18.88 41.25 20 42.37 20 43.75ZM52.5 43.75C52.5 44.44 51.94 45 51.25 45H33.75C33.06 45 32.5 44.44 32.5 43.75C32.5 43.06 33.06 42.5 33.75 42.5H51.25C51.94 42.5 52.5 43.06 52.5 43.75Z" fill="#FEFEFE"/>
</svg>
