<svg width="71" height="70" viewBox="0 0 71 70" fill="none" xmlns="http://www.w3.org/2000/svg">
<g clip-path="url(#clip0_133_6595)">
<path d="M70.5 33.5417C70.493 31.5752 70.0419 29.6358 69.1803 27.8681C68.3187 26.1005 67.0689 24.5503 65.5242 23.3333C67.6612 21.6487 69.2191 19.3391 69.9805 16.7266C70.742 14.1141 70.669 11.3292 69.7718 8.76016C68.8745 6.19117 67.1978 3.96629 64.9755 2.3959C62.7532 0.825507 60.0962 -0.0120715 57.375 6.74441e-06H13.625C10.9039 -0.0120715 8.24684 0.825507 6.02454 2.3959C3.80224 3.96629 2.12552 6.19117 1.2283 8.76016C0.331081 11.3292 0.258099 14.1141 1.01954 16.7266C1.78098 19.3391 3.33886 21.6487 5.47586 23.3333C3.92579 24.5454 2.67209 26.0946 1.80987 27.8633C0.947647 29.6321 0.499541 31.574 0.499541 33.5417C0.499541 35.5094 0.947647 37.4513 1.80987 39.22C2.67209 40.9888 3.92579 42.5379 5.47586 43.75C3.33886 45.4346 1.78098 47.7443 1.01954 50.3567C0.258099 52.9692 0.331081 55.7542 1.2283 58.3232C2.12552 60.8922 3.80224 63.1171 6.02454 64.6874C8.24684 66.2578 10.9039 67.0954 13.625 67.0833H57.375C60.0962 67.0954 62.7532 66.2578 64.9755 64.6874C67.1978 63.1171 68.8745 60.8922 69.7718 58.3232C70.669 55.7542 70.742 52.9692 69.9805 50.3567C69.2191 47.7443 67.6612 45.4346 65.5242 43.75C67.0689 42.5331 68.3187 40.9829 69.1803 39.2152C70.0419 37.4476 70.493 35.5081 70.5 33.5417ZM6.33336 13.125C6.33336 11.1911 7.10159 9.33647 8.46904 7.96902C9.8365 6.60157 11.6912 5.83334 13.625 5.83334H15.0834V8.75001C15.0834 9.52355 15.3907 10.2654 15.9376 10.8124C16.4846 11.3594 17.2265 11.6667 18 11.6667C18.7736 11.6667 19.5154 11.3594 20.0624 10.8124C20.6094 10.2654 20.9167 9.52355 20.9167 8.75001V5.83334H26.75V8.75001C26.75 9.52355 27.0573 10.2654 27.6043 10.8124C28.1513 11.3594 28.8931 11.6667 29.6667 11.6667C30.4402 11.6667 31.1821 11.3594 31.7291 10.8124C32.2761 10.2654 32.5834 9.52355 32.5834 8.75001V5.83334H57.375C59.3089 5.83334 61.1636 6.60157 62.531 7.96902C63.8985 9.33647 64.6667 11.1911 64.6667 13.125C64.6667 15.0589 63.8985 16.9135 62.531 18.281C61.1636 19.6484 59.3089 20.4167 57.375 20.4167H13.625C11.6912 20.4167 9.8365 19.6484 8.46904 18.281C7.10159 16.9135 6.33336 15.0589 6.33336 13.125ZM64.6667 53.9583C64.6667 55.8922 63.8985 57.7469 62.531 59.1143C61.1636 60.4818 59.3089 61.25 57.375 61.25H13.625C11.6912 61.25 9.8365 60.4818 8.46904 59.1143C7.10159 57.7469 6.33336 55.8922 6.33336 53.9583C6.33336 52.0245 7.10159 50.1698 8.46904 48.8023C9.8365 47.4349 11.6912 46.6667 13.625 46.6667H15.0834V49.5833C15.0834 50.3569 15.3907 51.0988 15.9376 51.6457C16.4846 52.1927 17.2265 52.5 18 52.5C18.7736 52.5 19.5154 52.1927 20.0624 51.6457C20.6094 51.0988 20.9167 50.3569 20.9167 49.5833V46.6667H26.75V49.5833C26.75 50.3569 27.0573 51.0988 27.6043 51.6457C28.1513 52.1927 28.8931 52.5 29.6667 52.5C30.4402 52.5 31.1821 52.1927 31.7291 51.6457C32.2761 51.0988 32.5834 50.3569 32.5834 49.5833V46.6667H57.375C59.3089 46.6667 61.1636 47.4349 62.531 48.8023C63.8985 50.1698 64.6667 52.0245 64.6667 53.9583ZM13.625 40.8333C11.6912 40.8333 9.8365 40.0651 8.46904 38.6977C7.10159 37.3302 6.33336 35.4755 6.33336 33.5417C6.33336 31.6078 7.10159 29.7531 8.46904 28.3857C9.8365 27.0182 11.6912 26.25 13.625 26.25H15.0834V29.1667C15.0834 29.9402 15.3907 30.6821 15.9376 31.2291C16.4846 31.776 17.2265 32.0833 18 32.0833C18.7736 32.0833 19.5154 31.776 20.0624 31.2291C20.6094 30.6821 20.9167 29.9402 20.9167 29.1667V26.25H26.75V29.1667C26.75 29.9402 27.0573 30.6821 27.6043 31.2291C28.1513 31.776 28.8931 32.0833 29.6667 32.0833C30.4402 32.0833 31.1821 31.776 31.7291 31.2291C32.2761 30.6821 32.5834 29.9402 32.5834 29.1667V26.25H57.375C59.3089 26.25 61.1636 27.0182 62.531 28.3857C63.8985 29.7531 64.6667 31.6078 64.6667 33.5417C64.6667 35.4755 63.8985 37.3302 62.531 38.6977C61.1636 40.0651 59.3089 40.8333 57.375 40.8333H13.625Z" fill="#2C303E"/>
</g>
<defs>
<clipPath id="clip0_133_6595">
<rect width="70" height="70" fill="white" transform="translate(0.5)"/>
</clipPath>
</defs>
</svg>
