<svg width="24" height="24" viewBox="0 0 24 24" xmlns="http://www.w3.org/2000/svg">
<g clip-path="url(#clip0_133_4362)">
<path d="M24 4C24 1.794 22.206 0 20 0C17.794 0 16 1.794 16 4C16 4.067 16.017 4.13 16.02 4.196L7.386 6.894C6.679 5.761 5.431 5 4 5C1.794 5 0 6.794 0 9C0 11.206 1.794 13 4 13C4.802 13 5.547 12.757 6.174 12.349L12.484 18.133C12.185 18.693 12 19.322 12 20C12 22.206 13.794 24 16 24C18.206 24 20 22.206 20 20C20 18.487 19.146 17.184 17.904 16.504L20.031 7.997C22.222 7.98 24 6.195 24 4ZM20 2C21.103 2 22 2.897 22 4C22 5.103 21.103 6 20 6C18.897 6 18 5.103 18 4C18 2.897 18.897 2 20 2ZM16.614 6.106C16.979 6.69 17.49 7.164 18.096 7.496L15.97 16.004C15.18 16.01 14.446 16.249 13.827 16.651L7.517 10.867C7.816 10.307 8.001 9.678 8.001 9C8.001 8.933 7.984 8.87 7.981 8.804L16.614 6.106ZM4 11C2.897 11 2 10.103 2 9C2 7.897 2.897 7 4 7C5.103 7 6 7.897 6 9C6 10.103 5.103 11 4 11ZM16 22C14.897 22 14 21.103 14 20C14 18.897 14.897 18 16 18C17.103 18 18 18.897 18 20C18 21.103 17.103 22 16 22Z" fill="#FEFEFE"/>
</g>
<defs>
<clipPath id="clip0_133_4362">
<rect width="24" height="24" fill="white"/>
</clipPath>
</defs>
</svg>
