<svg width="25" height="25" viewBox="0 0 25 25" fill="none" xmlns="http://www.w3.org/2000/svg">
<g clip-path="url(#clip0_133_5656)">
<path d="M24.5 4.5C24.5 2.294 22.706 0.5 20.5 0.5C18.294 0.5 16.5 2.294 16.5 4.5C16.5 4.567 16.517 4.63 16.52 4.696L7.886 7.394C7.179 6.261 5.931 5.5 4.5 5.5C2.294 5.5 0.5 7.294 0.5 9.5C0.5 11.706 2.294 13.5 4.5 13.5C5.302 13.5 6.047 13.257 6.674 12.849L12.984 18.633C12.685 19.193 12.5 19.822 12.5 20.5C12.5 22.706 14.294 24.5 16.5 24.5C18.706 24.5 20.5 22.706 20.5 20.5C20.5 18.987 19.646 17.684 18.404 17.004L20.531 8.497C22.722 8.48 24.5 6.695 24.5 4.5ZM20.5 2.5C21.603 2.5 22.5 3.397 22.5 4.5C22.5 5.603 21.603 6.5 20.5 6.5C19.397 6.5 18.5 5.603 18.5 4.5C18.5 3.397 19.397 2.5 20.5 2.5ZM17.114 6.606C17.479 7.19 17.99 7.664 18.596 7.996L16.47 16.504C15.68 16.51 14.946 16.749 14.327 17.151L8.017 11.367C8.316 10.807 8.501 10.178 8.501 9.5C8.501 9.433 8.484 9.37 8.481 9.304L17.114 6.606ZM4.5 11.5C3.397 11.5 2.5 10.603 2.5 9.5C2.5 8.397 3.397 7.5 4.5 7.5C5.603 7.5 6.5 8.397 6.5 9.5C6.5 10.603 5.603 11.5 4.5 11.5ZM16.5 22.5C15.397 22.5 14.5 21.603 14.5 20.5C14.5 19.397 15.397 18.5 16.5 18.5C17.603 18.5 18.5 19.397 18.5 20.5C18.5 21.603 17.603 22.5 16.5 22.5Z" fill="#3400C0"/>
</g>
<defs>
<clipPath id="clip0_133_5656">
<rect width="24" height="24" fill="white" transform="translate(0.5 0.5)"/>
</clipPath>
</defs>
</svg>
