<svg width="70" height="70" viewBox="0 0 70 70" fill="none" xmlns="http://www.w3.org/2000/svg">
<path d="M29.1667 55.4167C29.1667 52.2083 31.7917 49.5833 35 49.5833C38.2083 49.5833 40.8333 52.2083 40.8333 55.4167C40.8333 58.625 38.2083 61.25 35 61.25C31.7917 61.25 29.1667 58.625 29.1667 55.4167ZM53.55 43.05C55.2708 41.3292 55.2708 38.5583 53.55 36.8667C43.3125 26.6292 26.6583 26.6292 16.4208 36.8667C14.7 38.5875 14.7 41.3583 16.4208 43.05C18.1417 44.7417 20.9125 44.7708 22.6042 43.05C29.4292 36.225 40.5417 36.225 47.3667 43.05C48.2125 43.8958 49.35 44.3333 50.4583 44.3333C51.5667 44.3333 52.7042 43.8958 53.55 43.05ZM68.6292 29.4292C70.3792 27.7667 70.4375 24.9958 68.775 23.2458C68.5125 22.9833 68.25 22.6917 67.9875 22.4292C59.1792 13.6208 47.4542 8.75 35 8.75C22.5458 8.75 10.8208 13.5917 2.01251 22.4C1.75001 22.6625 1.48751 22.9542 1.22501 23.2167C-0.437494 24.9667 -0.379161 27.7375 1.37084 29.4C3.12084 31.0625 5.89167 31.0042 7.55417 29.2542L8.19584 28.5833C15.3708 21.4083 24.8792 17.4708 35 17.4708C45.1208 17.4708 54.6583 21.4083 61.8333 28.5833L62.475 29.225C63.3208 30.1292 64.4875 30.5667 65.625 30.5667C66.7042 30.5667 67.8125 30.1583 68.6583 29.3708L68.6292 29.4292Z" fill="#2C303E"/>
</svg>
