<svg width="25" height="25" viewBox="0 0 25 25" fill="none" xmlns="http://www.w3.org/2000/svg">
<g clip-path="url(#clip0_133_5650)">
<path fill-rule="evenodd" clip-rule="evenodd" d="M20.963 3.988C18.717 1.74 15.731 0.501 12.55 0.5C5.99501 0.5 0.660007 5.834 0.657007 12.392C0.656007 14.488 1.20401 16.534 2.24501 18.338L0.557007 24.5L6.86101 22.846C8.59801 23.794 10.554 24.293 12.544 24.294H12.549C19.103 24.294 24.439 18.959 24.442 12.401C24.444 9.224 23.208 6.235 20.963 3.988ZM12.55 22.285H12.546C10.772 22.285 9.03301 21.808 7.51501 20.907L7.15401 20.693L3.41301 21.674L4.41201 18.026L4.17701 17.652C3.18701 16.078 2.66501 14.259 2.66601 12.392C2.66801 6.942 7.10301 2.508 12.555 2.508C15.195 2.508 17.677 3.538 19.543 5.406C21.409 7.275 22.436 9.758 22.435 12.399C22.432 17.851 17.998 22.285 12.55 22.285ZM17.972 14.882C17.675 14.733 16.214 14.014 15.941 13.915C15.669 13.816 15.471 13.766 15.272 14.063C15.073 14.36 14.505 15.03 14.331 15.229C14.158 15.427 13.984 15.452 13.687 15.303C13.39 15.154 12.432 14.841 11.297 13.828C10.414 13.04 9.81701 12.067 9.64401 11.769C9.47101 11.471 9.62601 11.311 9.77401 11.163C9.90801 11.03 10.071 10.816 10.22 10.642C10.37 10.47 10.419 10.346 10.519 10.147C10.618 9.949 10.569 9.775 10.494 9.626C10.419 9.478 9.82501 8.015 9.57801 7.42C9.33701 6.84 9.09201 6.919 8.90901 6.91C8.73601 6.901 8.53801 6.9 8.33901 6.9C8.14101 6.9 7.81901 6.974 7.54701 7.272C7.27501 7.57 6.50701 8.289 6.50701 9.751C6.50701 11.214 7.57201 12.627 7.72001 12.825C7.86801 13.023 9.81501 16.025 12.796 17.312C13.505 17.618 14.059 17.801 14.49 17.938C15.202 18.164 15.85 18.132 16.362 18.056C16.933 17.971 18.12 17.337 18.368 16.643C18.616 15.949 18.616 15.353 18.541 15.23C18.467 15.105 18.269 15.031 17.972 14.882Z" fill="#FEFEFE"/>
</g>
<defs>
<clipPath id="clip0_133_5650">
<rect width="24" height="24" fill="white" transform="translate(0.5 0.5)"/>
</clipPath>
</defs>
</svg>
